HIERARCHY
ROOT Hips
{
	OFFSET 0.000000 0.000000 0.000000
	CHANNELS 6 Xposition Yposition Zposition Zrotation Yrotation Xrotation 
	JOINT LeftUpLeg_virtual
	{
		OFFSET 0.000000 0.000000 0.000000
		CHANNELS 3 Zrotation Yrotation Xrotation
		JOINT LeftUpLeg
		{
			OFFSET 8.479694 -4.795517 -0.379053
			CHANNELS 3 Zrotation Yrotation Xrotation
			JOINT LeftLeg
			{
				OFFSET 0.485052 -32.551468 0.112863
				CHANNELS 3 Zrotation Yrotation Xrotation
				JOINT LeftFoot
				{
					OFFSET 0.438033 -32.635670 -3.012641
					CHANNELS 3 Zrotation Yrotation Xrotation
					JOINT LeftToeBase
					{
						OFFSET 0.970169 -13.225353 11.864223
						CHANNELS 3 Zrotation Yrotation Xrotation
						End Site
						{
							OFFSET 0.000000 0.000000 0.000000
						}
					}
				}
			}
		}
	}
	JOINT RightUpLeg_virtual
	{
		OFFSET 0.000000 0.000000 0.000000
		CHANNELS 3 Zrotation Yrotation Xrotation
		JOINT RightUpLeg
		{
			OFFSET -8.479694 -4.795517 -0.379053
			CHANNELS 3 Zrotation Yrotation Xrotation
			JOINT RightLeg
			{
				OFFSET -0.484100 -32.551483 0.112903
				CHANNELS 3 Zrotation Yrotation Xrotation
				JOINT RightFoot
				{
					OFFSET -0.438985 -32.635651 -3.012681
					CHANNELS 3 Zrotation Yrotation Xrotation
					JOINT RightToeBase
					{
						OFFSET -0.970169 -13.225354 11.864223
						CHANNELS 3 Zrotation Yrotation Xrotation
						End Site
						{
							OFFSET 0.000000 0.000000 0.000000
						}
					}
				}
			}
		}
	}
	JOINT Spine_virtual
	{
		OFFSET 0.000000 0.000000 0.000000
		CHANNELS 3 Zrotation Yrotation Xrotation
		JOINT Spine
		{
			OFFSET 0.000000 7.722015 1.166203
			CHANNELS 3 Zrotation Yrotation Xrotation
			JOINT Spine1
			{
				OFFSET 0.000000 12.024086 0.248766
				CHANNELS 3 Zrotation Yrotation Xrotation
				JOINT Spine2
				{
					OFFSET -0.000000 11.503036 -0.491240
					CHANNELS 3 Zrotation Yrotation Xrotation
					JOINT Neck_virtual
					{
						OFFSET 0.000000 0.000000 0.000000
						CHANNELS 3 Zrotation Yrotation Xrotation
						JOINT Neck
						{
							OFFSET 0.000000 18.430687 -3.123054
							CHANNELS 3 Zrotation Yrotation Xrotation
							JOINT Head
							{
								OFFSET -0.000000 9.051071 1.034021
								CHANNELS 3 Zrotation Yrotation Xrotation
								End Site
								{
									OFFSET 0.000000 0.000000 0.000000
								}
							}
						}
					}
					JOINT LeftShoulder_virtual
					{
						OFFSET 0.000000 0.000000 0.000000
						CHANNELS 3 Zrotation Yrotation Xrotation
						JOINT LeftShoulder
						{
							OFFSET 6.197824 13.665230 -4.064723
							CHANNELS 3 Zrotation Yrotation Xrotation
							JOINT LeftArm
							{
								OFFSET 7.778132 -0.187073 -1.709282
								CHANNELS 3 Zrotation Yrotation Xrotation
								JOINT LeftForeArm
								{
									OFFSET 21.954697 0.000000 -2.041093
									CHANNELS 3 Zrotation Yrotation Xrotation
									JOINT LeftHand
									{
										OFFSET 22.992908 0.000000 -0.870901
										CHANNELS 3 Zrotation Yrotation Xrotation
										End Site
										{
											OFFSET 0.000000 0.000000 0.000000
										}
									}
								}
							}
						}
					}
					JOINT RightShoulder_virtual
					{
						OFFSET 0.000000 0.000000 0.000000
						CHANNELS 3 Zrotation Yrotation Xrotation
						JOINT RightShoulder
						{
							OFFSET -6.197824 13.665230 -4.064723
							CHANNELS 3 Zrotation Yrotation Xrotation
							JOINT RightArm
							{
								OFFSET -7.778132 -0.187073 -1.709282
								CHANNELS 3 Zrotation Yrotation Xrotation
								JOINT RightForeArm
								{
									OFFSET -21.954697 0.000000 -2.041093
									CHANNELS 3 Zrotation Yrotation Xrotation
									JOINT RightHand
									{
										OFFSET -22.992908 0.000000 -0.870901
										CHANNELS 3 Zrotation Yrotation Xrotation
										End Site
										{
											OFFSET 0.000000 0.000000 0.000000
										}
									}
								}
							}
						}
					}
				}
			}
		}
	}
}
MOTION
Frames: 11
Frame Time: 0.033333
18.074924 82.218704 54.496700 179.993831 2.013810 -179.920720 -4.808221 0.878984 11.257685 1.851205 0.691351 -23.318124 7.156228 6.773397 24.456524 -3.977693 -6.567774 -6.603532 0.000000 0.000000 0.000000 -0.349785 0.634013 10.322436 -1.371831 -6.122284 -15.370897 -1.274651 1.459961 24.113194 7.898165 10.175627 -9.339414 0.000000 0.000000 0.000000 3.410186 2.691535 2.497591 -5.411639 0.703919 -1.599205 1.149727 -3.351728 4.023702 0.025362 0.026607 0.018831 0.893023 -2.344643 4.974235 -0.641848 2.211871 -15.342314 0.000000 0.000000 0.000000 2.082831 -1.370940 2.258482 9.280771 1.115202 -5.965344 -20.703581 4.071992 -39.430317 -6.059329 -15.383707 -5.026989 0.000000 0.000000 0.000000 -1.501636 -0.265983 1.764812 5.174676 -6.968984 -4.576207 22.048534 -13.765022 -43.115614 -0.162149 24.515668 -6.693038 0.000000 0.000000 0.000000 
18.062435 82.220474 54.532330 179.991672 1.920434 -179.992014 -4.828374 0.860030 11.217149 1.859503 0.610646 -23.316594 7.223862 6.809566 24.609378 -3.889047 -6.489455 -6.820919 0.000000 0.000000 0.000000 -0.384977 0.454470 10.404790 -1.275696 -6.419107 -15.242057 -1.099877 1.444565 24.278331 8.152483 10.461406 -9.331314 0.000000 0.000000 0.000000 3.392062 2.628187 2.528336 -5.415236 0.646598 -1.569119 1.143213 -3.399717 4.022851 0.026506 -0.027026 -0.000497 0.896189 -2.327409 4.961189 -0.639482 2.199775 -15.338708 0.000000 0.000000 0.000000 2.119183 -1.335698 2.209929 9.322422 1.166417 -6.136643 -20.711811 4.157072 -39.380521 -6.060200 -15.321776 -5.101729 0.000000 0.000000 0.000000 -1.494676 -0.154538 1.726035 5.172987 -6.889190 -4.613733 22.020567 -13.860758 -43.185630 -0.122012 24.606323 -6.668335 0.000000 0.000000 0.000000 
18.053871 82.226883 54.566452 179.984432 1.985726 -179.930433 -4.817102 0.892013 11.151244 1.876947 0.627630 -23.323450 7.204416 6.798584 24.560431 -3.873342 -6.458294 -6.798147 0.000000 0.000000 0.000000 -0.406329 0.514666 10.355263 -1.254312 -6.449077 -15.285562 -1.088397 1.455645 24.292592 8.159854 10.459932 -9.282099 0.000000 0.000000 0.000000 3.390683 2.720766 2.494063 -5.388089 0.714852 -1.612710 1.104976 -3.332669 4.009191 -0.068154 0.030940 0.002570 0.990161 -2.270095 4.975936 -0.621464 2.158802 -15.298290 0.000000 0.000000 0.000000 2.225075 -1.432802 2.221767 9.261335 1.066199 -6.075276 -20.736898 4.172501 -39.455827 -6.044547 -15.252246 -5.283864 0.000000 0.000000 0.000000 -1.427475 -0.207810 1.719656 5.249166 -7.017388 -4.560175 21.908414 -13.950227 -43.092538 -0.151377 24.700182 -6.754592 0.000000 0.000000 0.000000 
18.051714 82.227501 54.600094 179.975580 1.981578 -179.904341 -4.810326 0.907353 11.114542 1.873748 0.619503 -23.329691 7.180518 6.818281 24.531495 -3.887000 -6.446687 -6.756796 0.000000 0.000000 0.000000 -0.415065 0.551199 10.332945 -1.227659 -6.453810 -15.323746 -1.089328 1.436080 24.325975 8.160393 10.443655 -9.263191 0.000000 0.000000 0.000000 3.341597 2.739768 2.475275 -5.382042 0.679327 -1.634404 1.149644 -3.382123 4.003964 0.021979 -0.012930 0.021035 0.924627 -2.301421 4.964523 -0.537897 2.185441 -15.231962 0.000000 0.000000 0.000000 2.084627 -1.323988 2.205574 9.238378 1.143561 -5.986158 -20.789680 4.067326 -39.441016 -5.983144 -15.141390 -5.069561 0.000000 0.000000 0.000000 -1.518790 -0.185183 1.773308 5.292473 -6.962976 -4.532815 21.860633 -13.916441 -43.254389 -0.093359 24.760691 -6.772214 0.000000 0.000000 0.000000 
18.060106 82.228310 54.623501 179.904751 1.991853 -179.944653 -4.893287 0.928756 11.104537 1.917342 0.583014 -23.338000 7.112337 6.772490 24.620044 -3.881640 -6.417265 -6.752830 0.000000 0.000000 0.000000 -0.481921 0.541776 10.355172 -1.243611 -6.349953 -15.329267 -1.109717 1.390909 24.348649 8.169559 10.418223 -9.246847 0.000000 0.000000 0.000000 3.256174 2.805039 2.484702 -5.390219 0.702141 -1.609333 1.113697 -3.329727 4.027346 -0.006472 0.021610 0.009746 0.944649 -2.235214 4.893822 -0.497965 2.209760 -15.200202 0.000000 0.000000 0.000000 2.115185 -1.373594 2.224749 9.205526 1.076373 -6.106989 -20.710436 3.991056 -39.411523 -5.974960 -15.017274 -4.981768 0.000000 0.000000 0.000000 -1.485340 -0.241669 1.720624 5.369662 -7.060607 -4.656173 21.763124 -13.981296 -43.187723 0.023263 24.905457 -6.678910 0.000000 0.000000 0.000000 
18.078497 82.230904 54.642895 179.933520 2.117096 -179.927796 -4.883323 0.915471 11.068404 1.973534 0.633370 -23.379463 7.075137 6.831960 24.763621 -3.864263 -6.370688 -6.744360 0.000000 0.000000 0.000000 -0.482013 0.563397 10.337038 -1.212167 -6.177623 -15.364007 -1.122423 1.356517 24.313424 8.168105 10.384381 -9.197376 0.000000 0.000000 0.000000 3.244820 2.764033 2.509493 -5.328622 0.697861 -1.643527 1.130568 -3.320812 4.019037 0.016876 0.008763 0.035972 0.925278 -2.240426 4.883528 -0.458887 2.192386 -15.087610 0.000000 0.000000 0.000000 2.052884 -1.319503 2.175973 9.091981 1.091442 -5.923277 -20.621209 3.876263 -39.238064 -5.876108 -14.936765 -4.690309 0.000000 0.000000 0.000000 -1.511263 -0.194667 1.709825 5.462574 -7.011324 -4.681179 21.730571 -14.035280 -43.184308 0.080661 25.077502 -6.736631 0.000000 0.000000 0.000000 
18.120541 82.235771 54.661938 179.940063 2.329849 -179.906677 -4.909172 0.795489 11.047330 2.060195 0.697332 -23.444872 7.050223 6.900383 24.877098 -3.817049 -6.294455 -6.754909 0.000000 0.000000 0.000000 -0.512458 0.552581 10.291368 -1.168733 -6.104190 -15.422026 -1.102543 1.436800 24.271530 8.182193 10.383819 -9.141602 0.000000 0.000000 0.000000 3.227293 2.665300 2.566638 -5.287935 0.688210 -1.744531 1.121055 -3.311838 3.969933 0.022973 -0.018564 0.018811 0.914520 -2.196515 4.937563 -0.436326 2.178558 -14.984262 0.000000 0.000000 0.000000 2.038678 -1.240524 2.281018 9.114611 1.160323 -5.906405 -20.445849 3.822425 -39.191004 -5.781992 -14.896598 -4.761997 0.000000 0.000000 0.000000 -1.523687 -0.123334 1.816552 5.494896 -6.955854 -4.612098 21.795685 -13.962448 -43.356453 0.111841 25.330754 -6.832138 0.000000 0.000000 0.000000 
18.199759 82.245735 54.691547 179.952808 2.552665 -179.905981 -4.963753 0.694694 11.055710 2.195729 0.770799 -23.510669 7.015184 6.898947 25.002136 -3.723985 -6.165933 -6.769590 0.000000 0.000000 0.000000 -0.549875 0.458368 10.281958 -1.091564 -6.013308 -15.452330 -1.064032 1.523065 24.188830 8.212267 10.400187 -9.037645 0.000000 0.000000 0.000000 3.236324 2.537644 2.628995 -5.236837 0.711245 -1.792676 1.082503 -3.270086 3.967543 -0.012946 -0.029049 0.023496 0.943985 -2.139794 4.937195 -0.450784 2.184217 -14.864122 0.000000 0.000000 0.000000 2.055241 -1.221293 2.231034 9.098262 1.143982 -5.927986 -20.272871 3.963339 -38.976065 -5.665313 -15.001103 -4.532207 0.000000 0.000000 0.000000 -1.517482 -0.044894 1.762638 5.691045 -6.854375 -4.498899 21.909594 -14.065648 -43.370776 0.151887 25.637936 -6.881521 0.000000 0.000000 0.000000 
18.312494 82.262993 54.736691 -179.980525 2.866321 -179.919272 -4.957953 0.665544 11.092203 2.359063 0.928645 -23.562437 6.987607 6.911514 25.068266 -3.635868 -6.027896 -6.756417 0.000000 0.000000 0.000000 -0.563007 0.384496 10.262174 -0.950002 -5.882684 -15.468990 -1.038014 1.632053 24.077848 8.228150 10.410106 -8.921484 0.000000 0.000000 0.000000 3.237674 2.418362 2.699336 -5.138445 0.747075 -1.803921 1.088383 -3.182396 3.982297 0.021987 0.001102 0.038833 0.814183 -2.101816 4.923079 -0.532930 2.141937 -14.719992 0.000000 0.000000 0.000000 1.956518 -1.236852 2.199684 9.072064 1.130050 -5.912621 -20.122489 4.108451 -38.867697 -5.515800 -15.232401 -4.315182 0.000000 0.000000 0.000000 -1.665743 0.004051 1.727511 5.949546 -6.860382 -4.370273 22.039772 -13.996199 -43.314696 0.175166 26.045565 -6.902882 0.000000 0.000000 0.000000 
18.458555 82.275360 54.802391 -179.973039 3.236362 -179.893878 -4.999857 0.675723 11.107472 2.551139 1.000374 -23.598348 6.931298 6.959891 25.062795 -3.602278 -5.937355 -6.707365 0.000000 0.000000 0.000000 -0.607939 0.436167 10.193677 -0.801019 -5.811685 -15.489083 -1.025490 1.728262 24.003059 8.227351 10.418945 -8.837154 0.000000 0.000000 0.000000 3.207658 2.366733 2.759065 -5.086990 0.750552 -1.859091 1.054892 -3.116914 3.963926 0.024584 0.014441 0.015947 0.786859 -2.080952 4.961941 -0.631885 2.031689 -14.537472 0.000000 0.000000 0.000000 1.916827 -1.120581 2.281233 8.955205 1.173626 -5.810895 -20.057144 4.135121 -38.937867 -5.335635 -15.504325 -4.081091 0.000000 0.000000 0.000000 -1.649688 0.045039 1.766294 6.058323 -6.828772 -4.360917 22.405165 -13.963981 -43.218053 0.276916 26.558765 -6.862917 0.000000 0.000000 0.000000 
18.636011 82.285904 54.877159 -179.961524 3.536423 -179.907552 -5.034221 0.769638 11.099632 2.766546 1.055241 -23.626340 6.838531 6.970281 25.060049 -3.616715 -5.889225 -6.669166 0.000000 0.000000 0.000000 -0.652120 0.547754 10.149681 -0.599600 -5.718891 -15.465225 -1.046185 1.740004 23.912888 8.202131 10.407492 -8.782355 0.000000 0.000000 0.000000 3.190089 2.406909 2.817417 -5.022203 0.713512 -1.869502 1.051488 -3.066262 3.961695 0.034397 0.017211 0.007834 0.744784 -2.053749 4.961744 -0.783989 1.989802 -14.371141 0.000000 0.000000 0.000000 1.883132 -1.055817 2.262428 8.764584 1.169487 -5.736190 -20.157049 4.292262 -38.798090 -5.110138 -15.784547 -3.805384 0.000000 0.000000 0.000000 -1.680962 0.100911 1.767792 6.317966 -6.828710 -4.234038 22.668793 -13.963928 -42.870300 0.313502 27.209997 -6.820661 0.000000 0.000000 0.000000 
